<svg width="669" height="668" viewBox="0 0 669 668" fill="none" xmlns="http://www.w3.org/2000/svg">
<g clip-path="url(#clip0)">
<path d="M540.296 668C383.107 668 430.538 668 334.5 668H128.704C62.0654 668 15.025 603.028 35.8019 540.009L82.841 389.188C98.9114 344.568 132.232 307.774 175.351 287.813H494.433C536.767 307.774 570.087 344.567 585.766 388.797L633.198 540.009C653.975 603.028 606.935 668 540.296 668Z" fill="#0D70B2"/>
<path d="M540.296 668C383.107 668 430.538 668 334.5 668V287.813H494.434C536.768 307.774 570.089 344.567 585.767 388.797L633.198 540.009C653.975 603.028 606.935 668 540.296 668Z" fill="#095C92"/>
<path d="M538.729 218.925L334.5 218.536L130.664 218.145L257.279 39.9326C275.701 15.2727 303.141 -0.382267 334.5 0.0065297H336.852C368.603 0.397936 397.217 15.2714 416.036 41.1055L538.729 218.925Z" fill="#0D70B2"/>
<path d="M538.729 218.925L334.5 218.536V0.00653076H336.852C368.603 0.397937 397.217 15.2714 416.036 41.1055L538.729 218.925Z" fill="#095C92"/>
<path d="M550.096 251.805C550.096 265.114 544.608 284.684 519.911 303.863C519.519 303.863 519.519 303.863 519.519 304.254L349.004 438.898C345.477 441.635 341.164 443.204 336.852 443.204C336.067 443.204 335.285 443.204 334.5 442.812C331.363 442.421 327.837 441.248 325.092 438.9L151.441 305.427C151.049 305.427 151.049 305.427 151.049 305.427L150.657 305.036C150.657 305.036 150.657 305.036 150.657 304.645C124.392 285.466 118.904 265.503 118.904 251.805C118.904 240.063 122.823 228.71 130.664 218.144C151.441 190.353 192.992 173.915 236.502 164.521V216.577L334.5 216.188L432.498 215.797V164.522C476.793 173.916 518.736 190.745 539.119 218.927C546.177 229.102 550.096 240.455 550.096 251.805Z" fill="#095C92"/>
<path d="M550.096 251.805C550.096 265.114 544.608 284.684 519.911 303.863C519.519 303.863 519.519 303.863 519.519 304.254L349.004 438.898C345.477 441.635 341.164 443.204 336.852 443.204C336.067 443.204 335.285 443.204 334.5 442.812V216.188L432.498 215.797V164.522C476.793 173.916 518.736 190.745 539.119 218.927C546.177 229.102 550.096 240.455 550.096 251.805Z" fill="#08469C"/>
<path d="M432.498 164.522V215.797C430.146 269.418 387.418 310.516 334.5 310.516C281.582 310.516 238.854 269.418 236.502 216.577V164.521C270.997 157.084 306.278 153.952 334.5 153.952C362.333 153.953 398.003 157.086 432.498 164.522Z" fill="#FEDBAB"/>
<path d="M432.498 164.522V215.797C430.146 269.418 387.418 310.516 334.5 310.516V153.953C362.333 153.953 398.003 157.086 432.498 164.522Z" fill="#FEC478"/>
<path d="M452.098 404.454H216.902C184.366 404.454 158.104 430.677 158.104 463.165V668H510.896V463.165C510.896 430.677 484.634 404.454 452.098 404.454Z" fill="#17ACE8"/>
<path d="M393.299 531.008C393.299 541.968 384.676 550.578 373.699 550.578H295.301C284.324 550.578 275.701 541.968 275.701 531.008C275.701 520.047 284.324 511.438 295.301 511.438H373.699C384.676 511.438 393.299 520.047 393.299 531.008Z" fill="#E1E4FB"/>
<path d="M510.896 463.165V668H334.5V404.454H452.098C484.634 404.454 510.896 430.677 510.896 463.165Z" fill="#1689FC"/>
<path d="M393.299 531.008C393.299 541.968 384.676 550.578 373.699 550.578H334.5V511.438H373.699C384.676 511.438 393.299 520.047 393.299 531.008Z" fill="#C5C9F7"/>
</g>
<defs>
<clipPath id="clip0">
<rect width="669" height="668" fill="white"/>
</clipPath>
</defs>
</svg>
